<?xml version="1.0" encoding="UTF-8" standalone="no"?>
<!-- Created with Inkscape (http://www.inkscape.org/) -->

<svg
   width="200"
   height="200"
   viewBox="0 0 52.916665 52.916666"
   version="1.1"
   id="svg1"
   sodipodi:docname="komorebi_logo.svg"
   inkscape:version="1.4.2 (f4327f4, 2025-05-13)"
   inkscape:export-filename="komorebi_logo.png"
   inkscape:export-xdpi="96"
   inkscape:export-ydpi="96"
   xmlns:inkscape="http://www.inkscape.org/namespaces/inkscape"
   xmlns:sodipodi="http://sodipodi.sourceforge.net/DTD/sodipodi-0.dtd"
   xmlns="http://www.w3.org/2000/svg"
   xmlns:svg="http://www.w3.org/2000/svg">
  <sodipodi:namedview
     id="namedview1"
     pagecolor="#505050"
     bordercolor="#eeeeee"
     borderopacity="1"
     inkscape:showpageshadow="0"
     inkscape:pageopacity="0"
     inkscape:pagecheckerboard="0"
     inkscape:deskcolor="#505050"
     inkscape:document-units="mm"
     inkscape:zoom="0.97386896"
     inkscape:cx="168.91389"
     inkscape:cy="300.34842"
     inkscape:window-width="1920"
     inkscape:window-height="991"
     inkscape:window-x="-9"
     inkscape:window-y="-9"
     inkscape:window-maximized="1"
     inkscape:current-layer="layer1"
     showguides="true">
    <sodipodi:guide
       position="24.994806,40.962628"
       orientation="1,0"
       id="guide3"
       inkscape:locked="false" />
    <sodipodi:guide
       position="5.9770188,27.650177"
       orientation="0,-1"
       id="guide4"
       inkscape:locked="false" />
  </sodipodi:namedview>
  <defs
     id="defs1" />
  <g
     inkscape:label="Livello 1"
     inkscape:groupmode="layer"
     id="layer1">
    <path
       style="font-weight:bold;font-size:35.2777px;font-family:'Playfair Display';-inkscape-font-specification:'Playfair Display Bold';letter-spacing:1.32292px;fill:#00bc7d;stroke-width:29.1342"
       d="m 44.711229,44.308686 c 0.640712,1.025156 1.30281,1.836747 1.986241,2.434774 0.7048,0.59801 1.623183,1.121272 2.755129,1.56977 v 1.313503 c -3.118206,-0.128144 -6.535415,-0.192232 -10.251629,-0.192232 -2.883272,0 -5.659753,0.06398 -8.329441,0.192232 V 48.31323 c 1.238738,-0.06416 2.125075,-0.192251 2.659014,-0.384427 0.533936,-0.192213 0.800896,-0.491218 0.800896,-0.897013 0,-0.363095 -0.234933,-0.918384 -0.7048,-1.665903 L 24.111855,29.956416 c -0.598009,-0.961103 -1.121271,-1.687254 -1.569787,-2.178471 -0.427147,-0.512588 -0.864969,-0.864987 -1.313484,-1.0572 -0.448516,-0.213583 -1.014481,-0.352401 -1.697931,-0.416471 v 16.370572 c 0,1.644515 0.117538,2.840552 0.352401,3.588073 0.234933,0.747519 0.683449,1.260089 1.34553,1.537742 0.66208,0.277654 1.729955,0.448497 3.203626,0.512569 v 1.313503 c -2.349334,-0.128144 -5.649079,-0.192232 -9.899227,-0.192232 -4.6986642,0 -8.1479113,0.06398 -10.3477393,0.192232 V 48.31323 C 5.6375587,48.24907 6.6947572,48.078278 7.3568427,47.800661 8.0189265,47.523008 8.4674349,47.010438 8.7023683,46.262919 8.9586582,45.515398 9.086804,44.319361 9.086804,42.674846 V 10.125913 C 9.086804,8.4813795 8.958662,7.2853616 8.7023683,6.5378412 8.4674349,5.7903207 8.0189265,5.2777523 7.3568427,5.0000986 6.6947572,4.722445 5.6375587,4.5515827 4.1852437,4.4875116 V 3.174027 c 2.199828,0.128142 5.6490751,0.1922132 10.3477393,0.1922132 4.250148,0 7.549893,-0.063978 9.899227,-0.1922132 v 1.3134846 c -1.473671,0.064164 -2.541546,0.2349706 -3.203626,0.512587 -0.662081,0.2776537 -1.110597,0.7902221 -1.34553,1.5377426 -0.234933,0.7475204 -0.352401,1.9435383 -0.352401,3.5880718 v 14.76876 c 1.729957,-0.10676 3.321095,-0.640692 4.773415,-1.601814 1.452321,-0.961103 3.096854,-2.488171 4.933602,-4.581201 l 3.876402,-4.645273 c 1.986239,-2.349334 2.979368,-4.3676183 2.979368,-6.0548724 0,-1.0892451 -0.427146,-1.9435383 -1.28144,-2.562898 -0.83296,-0.6193783 -2.018302,-0.961103 -3.556045,-1.025174 V 3.174027 c 3.224997,0.128142 6.471343,0.1922132 9.739042,0.1922132 2.520196,0 4.570526,-0.063978 6.150989,-0.1922132 v 1.2494136 c -3.45993,0.790222 -6.631532,2.8939472 -9.514803,6.3111574 l -8.2013,9.73906 z"
       id="text1"
       aria-label="Komorebi"
       sodipodi:nodetypes="ccccsccsscccccsssccsccscsscsccsccssscsccscccsccccc" />
    <text
       xml:space="preserve"
       style="font-style:normal;font-variant:normal;font-weight:bold;font-stretch:normal;font-size:14.1111px;font-family:'Playfair Display';-inkscape-font-specification:'Playfair Display Bold';text-align:start;letter-spacing:1.32292px;writing-mode:lr-tb;direction:ltr;text-anchor:start;fill:#00bc7d;fill-opacity:1;stroke-width:15.665"
       x="33.04269"
       y="109.11773"
       id="text2"><tspan
         sodipodi:role="line"
         id="tspan1"
         x="33.04269"
         y="109.11773"
         style="font-size:14.1111px;stroke-width:15.665" /></text>
  </g>
</svg>
